<?xml version="1.0" encoding="UTF-8"?>
<svg id="Layer_1" data-name="Layer 1" xmlns="http://www.w3.org/2000/svg" viewBox="0 0 297 370.2">
  <defs>
    <style>
      .cls-1 {
        fill: #14143d;
      }

      .cls-2 {
        fill: #3c3cd6;
      }
    </style>
  </defs>
  <path class="cls-2" d="M248.52,256.81c5.28-9.69-1.78-19.38-9.43-25.51-10.63-8.54-27.2-12.77-40.52-11.25-9.31,1.06-8.98.92-18.06,3.92-8.58,2.84-15.76,8.06-23.27,13.13l-34.44,23.22-3.64,2.35-42.21,28.57-26.5,17.84c-1.9,1.28-3.7,2.35-6.1,3.43l-.03-196.82,10.52-6.86,7.28-4.75,13.94-9.5,36.22-24.36,28.63-19.26,14.64-10.07c6.96-4.78,10.91-6.52,18.47-9.8,2.06-.89,4.05-1.8,6.17-2.3l4.95-1.16c1.19-.28,2.54-.5,3.82-.72l6.07-1.02c5.38-.9,11.32-.71,16.71-.01l4.78.62c10.62,1.38,20.59,5.93,29.32,11.92,8.52,5.85,17,17.82,17,28.27v184.5c0,9.52-6.59,18.49-14.09,23.49l-13.31,8.89-4.63,3.14-6.4,4.44-30.16,20.13-27.25,18.35-25.05,16.83-.12-15.29,17.85-11.89,11.86-8,8.97-6.01,9.96-6.69,13.02-8.74,36.93-24.75c3.33-2.23,6.07-4.57,8.1-8.29Z"/>
  <path class="cls-1" d="M79.97,322.59c-.61-5.11-.51-10.28-.25-15.97l107.31-72.17.21,16-107.27,72.14Z"/>
  <polygon class="cls-1" points="128.45 323.02 110.58 334.75 110.62 318.83 217.53 246.98 217.8 262.88 128.45 323.02"/>
</svg>